# xmcd
#
# Track frame offsets: 
#        150
#        3931
#        16215
#        31778
#        49778
#        69166
#        86754
#        105871
#        107137
#        127032
#        144132
#        152879
#        176208
#        189635
#        211998
#        214647
#        226052
#        242105
#        257587
#        279587
#        298844
#
# Disc length: 4220 seconds
#
# Revision: 2
# Processed by: cddbd v1.5.2PL0 Copyright (c) Steve Scherf et al.
# Submitted via: ExactAudioCopyFreeDBPlugin 1.0
#
DISCID=1e107a15
DTITLE=DJ Kayslay and Greg Street - The Champions. The North Meets The S
DTITLE=outh
DYEAR=2006
DGENRE=Hiphop
TTITLE0=Intro (feat. DJ Kayslay and Greg Street)
TTITLE1=Go Off (feat. Busta Rhymes)
TTITLE2=The Hardest Out (feat. Papoose, Remy Ma and Hell Rell)
TTITLE3=Pop The Trunk (feat. Yung Joc, Papoose and Chamillionaire)
TTITLE4=Drama Gang (feat. Cam'ron, Juelz Santana and Jim Jones)
TTITLE5=Live From The Block (feat. Mike Jones, Papoose and Paul Wall)
TTITLE6=Hood Drug Warz (feat. Three Six Mafia and BG)
TTITLE7=Interlude (feat. Shaq Diesel)
TTITLE8=Can't Stop The Reign 2006 (feat. Bun-B, Papoose and Shaq Diesel)
TTITLE9=One And Only [My Boo] (feat. Remy Ma and Razah)
TTITLE10=The Rush (feat. Lloyd Banks)
TTITLE11=In The Ghetto (feat. Fat Joe, Jim Jones, Shaq Diesel, Cassidy
TTITLE11=and Sheek Louch)
TTITLE12=Steetniggaz (feat. Jae Millz, Smitty and Mike Beck)
TTITLE13=5 Deadly Venoms (feat. Ghostface, Kool G. Rap, Raekwon, Lord 
TTITLE13=Tariq and Big Daddy Kane)
TTITLE14=Interlude (feat. Buffie The Body)
TTITLE15=The Introduction (feat. Vein)
TTITLE16=Big Problems (feat. Lil Jon, Lil Flip, Lil Scrappy and Lil Wyte
TTITLE16=)
TTITLE17=Knock Em Out (feat. Twista and Speedknot Mobstaz)
TTITLE18=Code Of The Streets (feat. Maino, Uncle Murda, Prinz, Lakey T
TTITLE18=he Kid and Pistol Pete)
TTITLE19=7 Days A Week (feat. Atlas and C-Note)
TTITLE20=Can't Stop The Reign (Remix)
EXTD=DJ KAYSLAY  and  GREG STREET
EXTT0=
EXTT1=
EXTT2=
EXTT3=
EXTT4=
EXTT5=
EXTT6=
EXTT7=
EXTT8=
EXTT9=
EXTT10=
EXTT11=
EXTT12=
EXTT13=
EXTT14=
EXTT15=
EXTT16=
EXTT17=
EXTT18=
EXTT19=
EXTT20=
PLAYORDER=
